<?xml version="1.0" standalone="no"?>
<!DOCTYPE svg PUBLIC "-//W3C//DTD SVG 20010904//EN"
 "http://www.w3.org/TR/2001/REC-SVG-20010904/DTD/svg10.dtd">
<svg version="1.0" xmlns="http://www.w3.org/2000/svg"
 width="256.000000pt" height="197.000000pt" viewBox="0 0 256.000000 197.000000"
 preserveAspectRatio="xMidYMid meet">

<g transform="translate(0.000000,197.000000) scale(0.100000,-0.100000)"
fill="#ffd700" stroke="none">
<path d="M770 1318 c-18 -13 -43 -36 -54 -51 -20 -28 -21 -39 -21 -380 0 -396
0 -393 75 -436 37 -20 49 -21 512 -21 539 0 523 -2 566 81 23 44 23 46 20 386
-3 329 -4 343 -24 370 -11 15 -36 38 -54 51 l-33 22 -477 0 -477 0 -33 -22z
m255 -17 c9 -30 40 -51 95 -66 67 -18 90 -39 90 -83 0 -25 -8 -42 -34 -68
l-34 -34 -216 0 -216 0 0 75 c0 91 20 147 63 174 27 17 49 21 139 21 95 0 107
-2 113 -19z m758 0 c51 -33 61 -58 65 -158 l4 -93 -201 0 c-252 0 -276 9 -273
104 1 43 32 68 91 74 28 2 51 9 51 15 0 5 -22 8 -56 5 -75 -6 -109 -39 -108
-103 1 -53 22 -88 63 -105 l31 -12 0 -127 0 -127 -31 -23 c-38 -28 -69 -78
-69 -111 0 -14 23 -60 50 -102 28 -42 50 -79 50 -82 0 -3 -74 -6 -165 -6 -91
0 -165 4 -165 8 0 4 23 43 50 87 36 58 50 89 50 116 0 40 -28 84 -60 94 -19 6
-20 16 -20 137 l0 130 41 37 c34 30 42 44 46 84 5 41 2 52 -18 73 -12 13 -41
29 -63 34 -62 16 -84 27 -96 50 -11 20 -10 20 347 20 331 0 360 -2 386 -19z
m-663 -401 l0 -130 -205 0 -205 0 0 130 0 130 205 0 205 0 0 -130z m730 0 l0
-130 -190 0 -190 0 0 130 0 130 190 0 190 0 0 -130z m-674 -183 c33 -38 30
-72 -11 -137 -19 -30 -43 -72 -53 -92 l-17 -38 -144 0 c-167 0 -197 11 -225
80 -16 41 -23 200 -9 214 4 4 104 6 221 4 l214 -3 24 -28z m672 -57 c4 -105
-15 -160 -62 -190 -29 -18 -50 -20 -174 -20 -127 0 -141 2 -146 18 -4 10 -27
49 -52 88 -37 56 -44 75 -40 99 7 32 40 73 71 86 11 4 106 7 210 6 l190 -2 3
-85z"/>
</g>
</svg>
